<?xml version="1.0" encoding="utf-8"?>
<!-- Generator: Adobe Illustrator 19.2.1, SVG Export Plug-In . SVG Version: 6.00 Build 0)  -->
<svg version="1.1" id="Laag_1" xmlns="http://www.w3.org/2000/svg" xmlns:xlink="http://www.w3.org/1999/xlink" x="0px" y="0px"
	 viewBox="0 0 53.3 40" style="enable-background:new 0 0 53.3 40;" xml:space="preserve">
<style type="text/css">
	.st0{fill:#91979D;}
</style>
<title>skills-thumb-icon</title>
<path class="st0" d="M23,39.4c-0.1,0.5-0.6,0.8-1.1,0.6l-1.8-0.5c-0.5-0.1-0.8-0.7-0.6-1.2L30.4,0.7c0.1-0.5,0.6-0.8,1.1-0.6
	l1.8,0.5c0.5,0.1,0.8,0.7,0.6,1.2L23,39.4z"/>
<path class="st0" d="M15.2,34.3c-0.4,0.4-0.9,0.4-1.3,0l0,0L0.3,20.8c-0.4-0.4-0.4-0.9,0-1.3l0,0L13.9,5.9c0.4-0.4,0.9-0.4,1.3,0
	l0,0l1.5,1.5c0.4,0.4,0.4,0.9,0,1.3l0,0L5.2,20.1l11.4,11.4c0.4,0.4,0.4,0.9,0,1.3l0,0L15.2,34.3z"/>
<path class="st0" d="M39.4,34.3c-0.4,0.4-0.9,0.4-1.3,0l0,0l-1.5-1.4c-0.4-0.4-0.4-0.9,0-1.3l0,0L48,20.1L36.6,8.6
	c-0.4-0.4-0.4-0.9,0-1.3l0,0l1.5-1.5c0.4-0.4,0.9-0.4,1.3,0l0,0L53,19.4c0.4,0.4,0.4,0.9,0,1.3l0,0L39.4,34.3z"/>
</svg>
