<?xml version="1.0" encoding="utf-8"?>
<!-- Generator: Adobe Illustrator 19.2.1, SVG Export Plug-In . SVG Version: 6.00 Build 0)  -->
<svg version="1.1" id="Laag_1" xmlns="http://www.w3.org/2000/svg" xmlns:xlink="http://www.w3.org/1999/xlink" x="0px" y="0px"
	 viewBox="0 0 11.3 11.4" style="enable-background:new 0 0 11.3 11.4;" xml:space="preserve">
<style type="text/css">
	.st0{fill:#375478;}
</style>
<g>
	<path class="st0" d="M9.6,1.4V0.8C9.6,0.3,9.2,0,8.8,0h-1C7.3,0,7,0.3,7,0.8v0.6H4.1V0.8C4.1,0.3,3.8,0,3.3,0h-1
		C1.9,0,1.6,0.3,1.6,0.8v0.6H0.8C0.3,1.4,0,1.8,0,2.2v8.4c0,0.4,0.3,0.8,0.8,0.8h9.7c0.4,0,0.8-0.3,0.8-0.8V2.2
		c0-0.4-0.3-0.8-0.8-0.8H9.6z M7.9,0.9h0.7v2H7.9V0.9z M2.5,0.9h0.7v2H2.5V0.9z M10.4,10.5H0.9V4.8h9.4V10.5z"/>
</g>
</svg>
